<svg id="Layer_1" data-name="Layer 1" xmlns="http://www.w3.org/2000/svg" viewBox="0 0 283.12 312.78"><defs><style>.cls-1{font-size:29px;font-family:ClashGrotesk-Semibold, Clash Grotesk;font-weight:700;}.cls-1,.cls-2,.cls-3{fill:#86c65a;}.cls-2{font-size:21px;font-family:ClashGrotesk-Medium, Clash Grotesk;}</style></defs><title>my natures logo</title><text class="cls-1" transform="translate(46.82 153.58) rotate(-85.54)">M</text><text class="cls-1" transform="translate(48.62 131.01) rotate(-74.02)">Y</text><text class="cls-1" transform="translate(53.97 113.54) rotate(-67.46)"> </text><text class="cls-1" transform="matrix(0.49, -0.87, 0.87, 0.49, 55.22, 109.27)">N</text><text class="cls-1" transform="matrix(0.64, -0.77, 0.77, 0.64, 63.63, 93.74)">A</text><text class="cls-1" transform="translate(73.89 81.03) rotate(-42.07)">T</text><text class="cls-1" transform="translate(84.85 70.77) rotate(-32.6)">U</text><text class="cls-1" transform="translate(99.95 61) rotate(-22.44)">R</text><text class="cls-1" transform="translate(115.28 54.49) rotate(-12.82)">E</text><text class="cls-1" transform="translate(130.32 50.83) rotate(-4.21)">S</text><text class="cls-1" transform="matrix(1, 0.04, -0.04, 1, 147.18, 49.87)"> </text><text class="cls-1" transform="translate(151.65 49.59) rotate(8.52)">K</text><text class="cls-1" transform="translate(168.74 52.4) rotate(15.15)">I</text><text class="cls-1" transform="translate(174.25 53.54) rotate(21.26)">T</text><text class="cls-1" transform="translate(188 58.55) rotate(30.52)">C</text><text class="cls-1" transform="translate(203.7 67.62) rotate(40.9)">H</text><text class="cls-1" transform="translate(217.56 79.59) rotate(50.74)">E</text><text class="cls-1" transform="matrix(0.49, 0.87, -0.87, 0.49, 227.6, 91.46)">N</text><text class="cls-1" transform="translate(236.5 107.92) rotate(67.26)"> </text><text class="cls-1" transform="translate(238.55 112.01) rotate(72.99)">L</text><text class="cls-1" transform="matrix(0.15, 0.99, -0.99, 0.15, 242.89, 125.72)">L</text><text class="cls-1" transform="translate(245.31 138.9) rotate(90)">C</text><text class="cls-1" transform="translate(244.95 157.74) rotate(96.78)"> </text><text class="cls-2" transform="matrix(0.68, 0.73, -0.73, 0.68, 56.89, 222.44)">O</text><text class="cls-2" transform="translate(67.5 233.68) rotate(39.38)">N</text><text class="cls-2" transform="translate(79.1 243.05) rotate(32.52)">E</text><text class="cls-2" transform="translate(89.81 249.68) rotate(28.36)"> </text><text class="cls-2" transform="matrix(0.91, 0.41, -0.41, 0.91, 93.69, 251.94)">S</text><text class="cls-2" transform="matrix(0.95, 0.31, -0.31, 0.95, 105.29, 257.09)">T</text><text class="cls-2" transform="matrix(0.98, 0.2, -0.2, 0.98, 117.14, 260.88)">E</text><text class="cls-2" transform="matrix(1, 0.09, -0.09, 1, 129.6, 263.44)">P</text><text class="cls-2" transform="translate(142.83 264.44) rotate(0.74)"> </text><text class="cls-2" transform="matrix(1, -0.07, 0.07, 1, 147.4, 264.7)">A</text><text class="cls-2" transform="translate(160.41 263.77) rotate(-9.96)">T</text><text class="cls-2" transform="matrix(0.97, -0.24, 0.24, 0.97, 172.77, 261.43)"> </text><text class="cls-2" transform="matrix(0.95, -0.33, 0.33, 0.95, 177.22, 260.51)">A</text><text class="cls-2" transform="translate(191.53 255.31) rotate(-23.9)"> </text><text class="cls-2" transform="matrix(0.88, -0.47, 0.47, 0.88, 195.68, 253.62)">T</text><text class="cls-2" transform="matrix(0.85, -0.53, 0.53, 0.85, 206.36, 247.75)">I</text><text class="cls-2" transform="translate(211.11 245.1) rotate(-38.29)">M</text><text class="cls-2" transform="translate(225.69 233.25) rotate(-46.24)">E</text><path class="cls-3" d="M396,442.72c-75.39,0-136.72-61.33-136.72-136.72S320.61,169.28,396,169.28,532.72,230.61,532.72,306,471.39,442.72,396,442.72Zm0-271.44c-74.28,0-134.72,60.43-134.72,134.72S321.72,440.72,396,440.72,530.72,380.28,530.72,306,470.28,171.28,396,171.28Z" transform="translate(-249.6 -157.18)"/><path class="cls-3" d="M396.5,270.45l-.43-.21-.43.2a31.89,31.89,0,0,0-.67,57.37v15.35h2V327.72a31.89,31.89,0,0,0-.47-57.27Zm7.33,49.89a29.83,29.83,0,0,1-6.86,5.1V292.49h-2v33a29.89,29.89,0,0,1,1.09-53.07,29.9,29.9,0,0,1,7.77,47.88Z" transform="translate(-249.6 -157.18)"/><path class="cls-3" d="M361.49,267.58a51.6,51.6,0,0,0,30.33,89.86l.11-2a49.44,49.44,0,1,1,6.25.13l-.11,2a51.63,51.63,0,1,0-36.57-90Z" transform="translate(-249.6 -157.18)"/><path class="cls-3" d="M396,382.94A76.94,76.94,0,1,1,472.94,306,77,77,0,0,1,396,382.94Zm0-151.88A74.94,74.94,0,1,0,470.94,306,75,75,0,0,0,396,231.06Z" transform="translate(-249.6 -157.18)"/></svg>